<svg xmlns="http://www.w3.org/2000/svg" xmlns:xlink="http://www.w3.org/1999/xlink" width="1920" zoomAndPan="magnify" viewBox="0 0 1440 809.999993" height="1080" preserveAspectRatio="xMidYMid meet" version="1.0"><defs><g/><clipPath id="4b0de6470e"><path d="M 537 356 L 576 356 L 576 383 L 537 383 Z M 537 356 " clip-rule="nonzero"/></clipPath><clipPath id="7eaf5957de"><path d="M 370.660156 356.03125 L 1097.949219 419.882812 L 1067.300781 768.980469 L 340.011719 705.128906 Z M 370.660156 356.03125 " clip-rule="nonzero"/></clipPath><clipPath id="eac587e955"><path d="M 378.871094 262.507812 L 1106.160156 326.359375 L 1067.210938 770.007812 L 339.921875 706.152344 Z M 378.871094 262.507812 " clip-rule="nonzero"/></clipPath><clipPath id="fce3fb01d1"><path d="M 378.871094 262.507812 L 1106.160156 326.359375 L 1067.210938 770.007812 L 339.921875 706.152344 Z M 378.871094 262.507812 " clip-rule="nonzero"/></clipPath><clipPath id="331143d626"><path d="M 808 356 L 847 356 L 847 407 L 808 407 Z M 808 356 " clip-rule="nonzero"/></clipPath><clipPath id="c03b08da0d"><path d="M 370.660156 356.03125 L 1097.949219 419.882812 L 1067.300781 768.980469 L 340.011719 705.128906 Z M 370.660156 356.03125 " clip-rule="nonzero"/></clipPath><clipPath id="533d4c0cd3"><path d="M 378.871094 262.507812 L 1106.160156 326.359375 L 1067.210938 770.007812 L 339.921875 706.152344 Z M 378.871094 262.507812 " clip-rule="nonzero"/></clipPath><clipPath id="1ba74cfbbe"><path d="M 378.871094 262.507812 L 1106.160156 326.359375 L 1067.210938 770.007812 L 339.921875 706.152344 Z M 378.871094 262.507812 " clip-rule="nonzero"/></clipPath><clipPath id="16eef0ecf0"><path d="M 359 419 L 1094 419 L 1094 667 L 359 667 Z M 359 419 " clip-rule="nonzero"/></clipPath><clipPath id="6f0e6f7115"><path d="M 370.660156 356.03125 L 1097.949219 419.882812 L 1067.300781 768.980469 L 340.011719 705.128906 Z M 370.660156 356.03125 " clip-rule="nonzero"/></clipPath><clipPath id="78d2ed2c5e"><path d="M 378.871094 262.507812 L 1106.160156 326.359375 L 1067.210938 770.007812 L 339.921875 706.152344 Z M 378.871094 262.507812 " clip-rule="nonzero"/></clipPath><clipPath id="afd8f61464"><path d="M 378.871094 262.507812 L 1106.160156 326.359375 L 1067.210938 770.007812 L 339.921875 706.152344 Z M 378.871094 262.507812 " clip-rule="nonzero"/></clipPath><clipPath id="1a0c042fd5"><path d="M 858 539 L 1066 539 L 1066 759 L 858 759 Z M 858 539 " clip-rule="nonzero"/></clipPath><clipPath id="49c867dee3"><path d="M 370.660156 356.03125 L 1097.949219 419.882812 L 1067.300781 768.980469 L 340.011719 705.128906 Z M 370.660156 356.03125 " clip-rule="nonzero"/></clipPath><clipPath id="4277d6e5d9"><path d="M 378.871094 262.507812 L 1106.160156 326.359375 L 1067.210938 770.007812 L 339.921875 706.152344 Z M 378.871094 262.507812 " clip-rule="nonzero"/></clipPath><clipPath id="1637e86a31"><path d="M 378.871094 262.507812 L 1106.160156 326.359375 L 1067.210938 770.007812 L 339.921875 706.152344 Z M 378.871094 262.507812 " clip-rule="nonzero"/></clipPath><clipPath id="d333d876b8"><path d="M 400 335 L 957 335 L 957 498 L 400 498 Z M 400 335 " clip-rule="nonzero"/></clipPath><clipPath id="bbc9fc1026"><path d="M 410.785156 335.78125 L 956.253906 383.667969 L 946.222656 497.898438 L 400.757812 450.007812 Z M 410.785156 335.78125 " clip-rule="nonzero"/></clipPath><clipPath id="add2f31ae5"><path d="M 410.785156 335.78125 L 956.253906 383.667969 L 946.222656 497.898438 L 400.757812 450.007812 Z M 410.785156 335.78125 " clip-rule="nonzero"/></clipPath></defs><g clip-path="url(#4b0de6470e)"><g clip-path="url(#7eaf5957de)"><g clip-path="url(#eac587e955)"><g clip-path="url(#fce3fb01d1)"><path fill="#000000" d="M 551.035156 281.449219 C 539.609375 291.925781 540.078125 305.605469 538.808594 320.082031 C 537.195312 335.730469 537.285156 351.046875 537.824219 366.640625 C 538.679688 386.808594 571.296875 388 573.5625 367.625 C 575.175781 351.980469 576.035156 336.746094 575.496094 321.152344 C 574.871094 306.503906 576.058594 292.976562 565.339844 281.75 C 562.035156 278.585938 554.410156 278.398438 551.035156 281.449219 Z M 551.035156 281.449219 " fill-opacity="1" fill-rule="nonzero"/></g></g></g></g><g clip-path="url(#331143d626)"><g clip-path="url(#c03b08da0d)"><g clip-path="url(#533d4c0cd3)"><g clip-path="url(#1ba74cfbbe)"><path fill="#000000" d="M 822.171875 305.253906 C 810.980469 315.753906 811.214844 329.40625 809.941406 343.886719 C 808.332031 359.53125 808.417969 374.851562 808.960938 390.445312 C 809.816406 410.613281 842.433594 411.800781 844.699219 391.429688 C 846.3125 375.785156 847.171875 360.550781 846.628906 344.957031 C 846.003906 330.308594 847.191406 316.777344 836.476562 305.550781 C 833.171875 302.390625 825.542969 302.199219 822.171875 305.253906 Z M 822.171875 305.253906 " fill-opacity="1" fill-rule="nonzero"/></g></g></g></g><g clip-path="url(#16eef0ecf0)"><g clip-path="url(#6f0e6f7115)"><g clip-path="url(#78d2ed2c5e)"><g clip-path="url(#afd8f61464)"><path fill="#000000" d="M 359.132812 500.453125 C 361.796875 527.238281 384.714844 549.105469 404.0625 565.394531 C 425.398438 583.53125 449.933594 597.886719 474.851562 610.597656 C 531.132812 638.742188 594.296875 656.488281 656.761719 663.167969 C 772.6875 675.738281 892.929688 647.304688 984.648438 573.789062 C 1008.285156 554.8125 1030.214844 533.535156 1049.230469 510.089844 C 1067.410156 488.003906 1088.140625 461.359375 1093.507812 432.886719 C 1096.074219 419.957031 1080.230469 415.457031 1072.132812 423.355469 C 1054.585938 440.953125 1042.546875 463.816406 1026.339844 482.484375 C 1010.902344 500.507812 993.976562 516.480469 975.257812 531.105469 C 936.296875 561.410156 892.03125 584.074219 845.507812 599.84375 C 738.410156 636.367188 616.742188 626.644531 512.40625 585.429688 C 484.933594 574.648438 458.058594 562.480469 433.175781 546.660156 C 409.433594 531.421875 390.414062 508.703125 365.816406 495.058594 C 363.117188 493.148438 358.753906 496.59375 359.132812 500.453125 Z M 359.132812 500.453125 " fill-opacity="1" fill-rule="nonzero"/></g></g></g></g><g clip-path="url(#1a0c042fd5)"><g clip-path="url(#49c867dee3)"><g clip-path="url(#4277d6e5d9)"><g clip-path="url(#1637e86a31)"><path fill="#000000" d="M 860.945312 611.726562 C 853.851562 624.496094 861.796875 645.527344 865.648438 658.78125 C 870.394531 675.464844 877.378906 691.148438 886.832031 705.851562 C 904.058594 732.71875 932.769531 753.898438 964.878906 758.152344 C 1030.988281 766.824219 1073.007812 698.992188 1064.863281 639.433594 C 1062.222656 620.546875 1055.945312 602.292969 1047.167969 585.257812 C 1038.589844 568.71875 1027.117188 549.769531 1010.246094 540.632812 C 999.308594 534.652344 990.792969 547.296875 993.300781 556.847656 C 997.179688 572.496094 1009.265625 587.191406 1016.351562 601.6875 C 1023.890625 616.460938 1029.191406 632.238281 1030.597656 648.867188 C 1032.65625 674.402344 1021.886719 704.550781 998.121094 716.816406 C 971.820312 730.773438 940.671875 715.601562 921.832031 696.246094 C 909.992188 684.203125 901.78125 668.890625 895.015625 653.46875 C 891.417969 645.496094 888.785156 637.371094 885.445312 629.183594 C 882.472656 622.226562 879.472656 612.875 872.910156 608.710938 C 868.617188 605.941406 863.515625 606.925781 860.945312 611.726562 Z M 860.945312 611.726562 " fill-opacity="1" fill-rule="nonzero"/></g></g></g></g><g clip-path="url(#d333d876b8)"><g clip-path="url(#bbc9fc1026)"><g clip-path="url(#add2f31ae5)"><path fill="#ffffff" d="M 410.785156 335.78125 L 956.253906 383.667969 L 946.222656 497.898438 L 400.757812 450.007812 Z M 410.785156 335.78125 " fill-opacity="1" fill-rule="nonzero"/></g></g></g><g fill="#990000" fill-opacity="1"><g transform="translate(28.683555, 286.582437)"><g><path d="M 197.46875 -89.90625 C 192.269531 -63.78125 177.132812 -40.222656 152.0625 -19.234375 C 126.988281 1.742188 99.335938 13.625 69.109375 16.40625 C 60.835938 14.757812 52.445312 12.742188 43.9375 10.359375 C 35.425781 7.972656 28.085938 5.578125 21.921875 3.171875 C 24.179688 -23.898438 26.925781 -49.46875 30.15625 -73.53125 C 33.394531 -97.59375 37.066406 -119.957031 41.171875 -140.625 C 42.554688 -147.570312 44.003906 -154.609375 45.515625 -161.734375 C 47.035156 -168.859375 48.691406 -175.953125 50.484375 -183.015625 C 64.234375 -186.328125 76.710938 -188.1875 87.921875 -188.59375 C 99.140625 -189 110.570312 -188.046875 122.21875 -185.734375 C 151.707031 -179.859375 172.875 -168.710938 185.71875 -152.296875 C 198.5625 -135.878906 202.476562 -115.082031 197.46875 -89.90625 Z M 106.25 -154.046875 C 101.195312 -136.503906 96.347656 -118.28125 91.703125 -99.375 C 87.066406 -80.476562 82.710938 -60.785156 78.640625 -40.296875 C 77.816406 -36.171875 77.1875 -33.023438 76.75 -30.859375 C 76.320312 -28.703125 76.03125 -26.757812 75.875 -25.03125 C 92.476562 -29.9375 106.285156 -38.957031 117.296875 -52.09375 C 128.316406 -65.226562 135.753906 -81.472656 139.609375 -100.828125 C 142.335938 -114.535156 141.082031 -126.160156 135.84375 -135.703125 C 130.601562 -145.242188 122.257812 -151.148438 110.8125 -153.421875 C 109.5 -153.691406 108.5625 -153.878906 108 -153.984375 C 107.4375 -154.097656 106.851562 -154.117188 106.25 -154.046875 Z M 106.25 -154.046875 "/></g></g></g><g fill="#990000" fill-opacity="1"><g transform="translate(200.99702, 320.954332)"><g><path d="M 164.3125 26.171875 C 158.570312 27.109375 140.695312 26.609375 110.6875 24.671875 C 80.6875 22.742188 55.726562 20.367188 35.8125 17.546875 C 35.351562 -13.273438 36.023438 -49.066406 37.828125 -89.828125 C 39.640625 -130.585938 42.25 -164.363281 45.65625 -191.15625 C 75.632812 -192.519531 101.554688 -192.859375 123.421875 -192.171875 C 145.285156 -191.492188 166.554688 -189.691406 187.234375 -186.765625 C 186.242188 -179.753906 184.757812 -172.367188 182.78125 -164.609375 C 180.8125 -156.859375 178.273438 -148.851562 175.171875 -140.59375 C 164.546875 -142.09375 153.519531 -143.457031 142.09375 -144.6875 C 130.664062 -145.925781 118.726562 -147.046875 106.28125 -148.046875 C 105.320312 -143.921875 104.363281 -139.164062 103.40625 -133.78125 C 102.445312 -128.40625 101.101562 -120.328125 99.375 -109.546875 C 109.457031 -111.023438 119.429688 -111.738281 129.296875 -111.6875 C 139.160156 -111.644531 149.117188 -110.910156 159.171875 -109.484375 C 159.734375 -102.628906 159.898438 -95.640625 159.671875 -88.515625 C 159.441406 -81.398438 158.65625 -73.097656 157.3125 -63.609375 C 146.5 -65.140625 135.734375 -66.320312 125.015625 -67.15625 C 114.296875 -68 103.828125 -68.566406 93.609375 -68.859375 C 92.597656 -60.304688 91.703125 -51.921875 90.921875 -43.703125 C 90.140625 -35.492188 89.609375 -27.632812 89.328125 -20.125 C 94.816406 -19.351562 106.539062 -18.804688 124.5 -18.484375 C 142.457031 -18.171875 156.007812 -18.234375 165.15625 -18.671875 C 166.113281 -14.472656 166.472656 -7.800781 166.234375 1.34375 C 166.003906 10.5 165.363281 18.773438 164.3125 26.171875 Z M 164.3125 26.171875 "/></g></g></g><g fill="#990000" fill-opacity="1"><g transform="translate(368.009174, 344.76964)"><g><path d="M 170.796875 -190.546875 C 173.285156 -170.335938 174.773438 -153.675781 175.265625 -140.5625 C 175.765625 -127.445312 175.519531 -115.160156 174.53125 -103.703125 C 170.53125 -57.515625 160.195312 -23.125 143.53125 -0.53125 C 126.863281 22.050781 104.210938 32.101562 75.578125 29.625 C 53.441406 27.707031 37.390625 17.765625 27.421875 -0.203125 C 17.453125 -18.179688 13.847656 -43.109375 16.609375 -74.984375 C 18.304688 -94.640625 21.78125 -114.816406 27.03125 -135.515625 C 32.28125 -156.210938 37 -169.644531 41.1875 -175.8125 C 44.894531 -176.457031 49.398438 -176.882812 54.703125 -177.09375 C 60.015625 -177.3125 65.148438 -177.203125 70.109375 -176.765625 C 76.023438 -176.253906 81.097656 -175.429688 85.328125 -174.296875 C 89.554688 -173.171875 92.753906 -171.835938 94.921875 -170.296875 C 90.921875 -155.066406 87.582031 -139.828125 84.90625 -124.578125 C 82.238281 -109.335938 80.3125 -94.847656 79.125 -81.109375 C 77.144531 -58.203125 76.882812 -40.195312 78.34375 -27.09375 C 79.800781 -13.988281 82.910156 -7.234375 87.671875 -6.828125 C 93.597656 -6.304688 98.726562 -13.3125 103.0625 -27.84375 C 107.394531 -42.375 110.757812 -63.472656 113.15625 -91.140625 C 114.351562 -104.878906 114.664062 -119.554688 114.09375 -135.171875 C 113.519531 -150.796875 111.976562 -167.375 109.46875 -184.90625 C 117.1875 -187.5 126.953125 -189.289062 138.765625 -190.28125 C 150.585938 -191.28125 161.265625 -191.367188 170.796875 -190.546875 Z M 170.796875 -190.546875 "/></g></g></g><g fill="#990000" fill-opacity="1"><g transform="translate(533.204664, 358.231662)"><g/></g></g><g fill="#990000" fill-opacity="1"><g transform="translate(588.375514, 361.997135)"><g><path d="M 85.296875 20.109375 C 76.628906 22.078125 68.171875 23.46875 59.921875 24.28125 C 51.679688 25.101562 42.390625 25.425781 32.046875 25.25 C 32.640625 -9.800781 31.738281 -50.09375 29.34375 -95.625 C 26.945312 -141.164062 23.582031 -177.671875 19.25 -205.140625 C 30.375 -205.523438 41.5 -206.195312 52.625 -207.15625 C 63.75 -208.125 75.742188 -209.359375 88.609375 -210.859375 C 97.441406 -211.867188 109.726562 -213.390625 125.46875 -215.421875 C 141.21875 -217.453125 152.066406 -218.898438 158.015625 -219.765625 C 158.910156 -216.484375 159.5625 -212.78125 159.96875 -208.65625 C 160.382812 -204.539062 160.550781 -199.992188 160.46875 -195.015625 C 160.40625 -191.566406 160.097656 -187.832031 159.546875 -183.8125 C 159.003906 -179.789062 158.125 -175.398438 156.90625 -170.640625 C 140.019531 -169.191406 126.007812 -167.984375 114.875 -167.015625 C 103.75 -166.054688 95.601562 -165.4375 90.4375 -165.15625 C 90.675781 -157.09375 90.867188 -148.988281 91.015625 -140.84375 C 91.171875 -132.707031 91.179688 -124.617188 91.046875 -116.578125 C 99.304688 -118.359375 107.421875 -119.609375 115.390625 -120.328125 C 123.359375 -121.054688 131.363281 -121.351562 139.40625 -121.21875 C 141.019531 -114.863281 142.101562 -108.1875 142.65625 -101.1875 C 143.207031 -94.1875 143.394531 -85.421875 143.21875 -74.890625 C 132.875 -75.066406 123.4375 -75.03125 114.90625 -74.78125 C 106.382812 -74.539062 98.28125 -74.007812 90.59375 -73.1875 C 89.914062 -55.382812 89.15625 -38.679688 88.3125 -23.078125 C 87.476562 -7.484375 86.472656 6.910156 85.296875 20.109375 Z M 85.296875 20.109375 "/></g></g></g><g fill="#990000" fill-opacity="1"><g transform="translate(743.836362, 365.121133)"><g><path d="M 97.765625 -214.421875 C 120.742188 -215.285156 138.785156 -208.4375 151.890625 -193.875 C 164.992188 -179.320312 172.0625 -158.257812 173.09375 -130.6875 C 173.644531 -115.757812 172.195312 -100.515625 168.75 -84.953125 C 165.3125 -69.398438 160.273438 -55.554688 153.640625 -43.421875 C 145.367188 -28.921875 135.050781 -17.75 122.6875 -9.90625 C 110.332031 -2.0625 96.210938 2.15625 80.328125 2.75 C 57.359375 3.613281 39.128906 -4.566406 25.640625 -21.796875 C 12.148438 -39.023438 4.84375 -62.765625 3.71875 -93.015625 C 2.414062 -127.648438 10.441406 -156.269531 27.796875 -178.875 C 45.160156 -201.476562 68.484375 -213.328125 97.765625 -214.421875 Z M 90.984375 -35.046875 C 99.585938 -35.367188 105.773438 -41.539062 109.546875 -53.5625 C 113.316406 -65.582031 114.6875 -85.28125 113.65625 -112.65625 C 112.78125 -136.207031 110.289062 -152.835938 106.1875 -162.546875 C 102.082031 -172.265625 95.628906 -176.960938 86.828125 -176.640625 C 78.023438 -176.304688 71.515625 -169.734375 67.296875 -156.921875 C 63.078125 -144.109375 61.394531 -126.21875 62.25 -103.25 C 63.070312 -81.425781 65.957031 -64.523438 70.90625 -52.546875 C 75.863281 -40.566406 82.554688 -34.734375 90.984375 -35.046875 Z M 90.984375 -35.046875 "/></g></g></g><g fill="#990000" fill-opacity="1"><g transform="translate(925.048657, 359.417262)"><g><path d="M 230.171875 -20.15625 C 220.097656 -15.050781 210.710938 -11.269531 202.015625 -8.8125 C 193.328125 -6.363281 183.269531 -4.535156 171.84375 -3.328125 C 171.53125 -22.742188 170.59375 -45.375 169.03125 -71.21875 C 167.476562 -97.0625 165.566406 -124.398438 163.296875 -153.234375 C 157.484375 -140.691406 152.1875 -127.8125 147.40625 -114.59375 C 142.632812 -101.382812 138.382812 -87.84375 134.65625 -73.96875 C 130.21875 -72.15625 124.816406 -70.816406 118.453125 -69.953125 C 112.085938 -69.085938 105.898438 -68.910156 99.890625 -69.421875 C 93.054688 -81.242188 85.867188 -92.773438 78.328125 -104.015625 C 70.785156 -115.253906 62.90625 -126.125 54.6875 -136.625 C 57.113281 -113.570312 60.796875 -90.894531 65.734375 -68.59375 C 70.671875 -46.289062 76.125 -27.84375 82.09375 -13.25 C 77.125 -11.1875 69.457031 -9.03125 59.09375 -6.78125 C 48.738281 -4.53125 39.082031 -2.9375 30.125 -2 C 23.875 -26.570312 17.472656 -58.113281 10.921875 -96.625 C 4.367188 -135.132812 -0.457031 -169.148438 -3.5625 -198.671875 C 4.03125 -205.253906 12.519531 -211.0625 21.90625 -216.09375 C 31.289062 -221.125 40.21875 -224.664062 48.6875 -226.71875 C 64.257812 -210.4375 77.4375 -195.445312 88.21875 -181.75 C 99 -168.050781 108.359375 -154.59375 116.296875 -141.375 C 121.765625 -158.894531 128.023438 -175.78125 135.078125 -192.03125 C 142.140625 -208.28125 149.832031 -223.582031 158.15625 -237.9375 C 165.882812 -237.59375 173.675781 -236.726562 181.53125 -235.34375 C 189.382812 -233.957031 196.90625 -232 204.09375 -229.46875 C 208.175781 -203.519531 212.523438 -171.816406 217.140625 -134.359375 C 221.753906 -96.898438 226.097656 -58.832031 230.171875 -20.15625 Z M 230.171875 -20.15625 "/></g></g></g><g fill="#990000" fill-opacity="1"><g transform="translate(1158.753467, 333.939622)"><g><path d="M 164.4375 -25.34375 C 159.257812 -22.707031 142.09375 -17.710938 112.9375 -10.359375 C 83.78125 -3.015625 59.289062 2.359375 39.46875 5.765625 C 29.601562 -23.441406 19.289062 -57.722656 8.53125 -97.078125 C -2.21875 -136.441406 -10.066406 -169.398438 -15.015625 -195.953125 C 13.109375 -206.421875 37.679688 -214.675781 58.703125 -220.71875 C 79.734375 -226.757812 100.539062 -231.550781 121.125 -235.09375 C 122.320312 -228.113281 123.164062 -220.628906 123.65625 -212.640625 C 124.144531 -204.660156 124.175781 -196.257812 123.75 -187.4375 C 113.175781 -185.625 102.257812 -183.550781 91 -181.21875 C 79.738281 -178.894531 68.035156 -176.3125 55.890625 -173.46875 C 56.234375 -169.238281 56.769531 -164.414062 57.5 -159 C 58.238281 -153.59375 59.4375 -145.492188 61.09375 -134.703125 C 70.238281 -139.191406 79.507812 -142.921875 88.90625 -145.890625 C 98.3125 -148.867188 108.019531 -151.21875 118.03125 -152.9375 C 120.675781 -146.582031 122.972656 -139.976562 124.921875 -133.125 C 126.878906 -126.28125 128.671875 -118.132812 130.296875 -108.6875 C 119.535156 -106.832031 108.925781 -104.664062 98.46875 -102.1875 C 88.007812 -99.707031 77.875 -97.046875 68.0625 -94.203125 C 69.71875 -85.742188 71.429688 -77.488281 73.203125 -69.4375 C 74.972656 -61.382812 76.867188 -53.738281 78.890625 -46.5 C 84.359375 -47.445312 95.6875 -50.515625 112.875 -55.703125 C 130.0625 -60.890625 142.941406 -65.085938 151.515625 -68.296875 C 153.710938 -64.597656 156.097656 -58.351562 158.671875 -49.5625 C 161.253906 -40.769531 163.175781 -32.695312 164.4375 -25.34375 Z M 164.4375 -25.34375 "/></g></g></g><g fill="#990000" fill-opacity="1"><g transform="translate(1323.812446, 304.869478)"><g><path d="M 9.65625 -75.53125 C 3.644531 -92.65625 -1.753906 -109.863281 -6.546875 -127.15625 C -11.335938 -144.445312 -16.082031 -164.046875 -20.78125 -185.953125 C -21.175781 -187.828125 -21.566406 -189.894531 -21.953125 -192.15625 C -22.335938 -194.425781 -22.894531 -197.738281 -23.625 -202.09375 C -18.269531 -206.375 -12.710938 -209.914062 -6.953125 -212.71875 C -1.191406 -215.53125 5.054688 -217.660156 11.796875 -219.109375 C 16.109375 -220.035156 20.300781 -220.585938 24.375 -220.765625 C 28.445312 -220.953125 32.398438 -220.769531 36.234375 -220.21875 C 36.066406 -201.78125 37.640625 -179.148438 40.953125 -152.328125 C 44.265625 -125.503906 48.265625 -102.507812 52.953125 -83.34375 C 51.378906 -82.414062 49.394531 -81.597656 47 -80.890625 C 44.613281 -80.179688 41.453125 -79.40625 37.515625 -78.5625 C 33.210938 -77.632812 28.625 -76.894531 23.75 -76.34375 C 18.875 -75.789062 14.175781 -75.519531 9.65625 -75.53125 Z M 52.953125 -2.53125 C 47.703125 -1.40625 42.390625 -0.804688 37.015625 -0.734375 C 31.648438 -0.671875 27.101562 -1.113281 23.375 -2.0625 C 21.1875 -9.445312 19.300781 -16.832031 17.71875 -24.21875 C 16.132812 -31.613281 14.742188 -39.492188 13.546875 -47.859375 C 18.035156 -48.828125 22.546875 -49.695312 27.078125 -50.46875 C 31.617188 -51.25 38.050781 -52.332031 46.375 -53.71875 C 51.082031 -54.539062 54.617188 -55.15625 56.984375 -55.5625 C 59.347656 -55.96875 61.65625 -56.410156 63.90625 -56.890625 C 66.675781 -46.710938 69.046875 -38.160156 71.015625 -31.234375 C 72.992188 -24.316406 75.117188 -17.378906 77.390625 -10.421875 C 73.097656 -8.523438 69.117188 -6.984375 65.453125 -5.796875 C 61.796875 -4.617188 57.628906 -3.53125 52.953125 -2.53125 Z M 52.953125 -2.53125 "/></g></g></g></svg>